<svg width="41" height="29" viewBox="0 0 41 29" fill="none" xmlns="http://www.w3.org/2000/svg">
<g clip-path="url(#clip0_15542_26639)">
<path d="M32.3002 1.42403L40.0993 25.7079C40.5246 27.032 39.5369 28.3864 38.1463 28.3864H32.4113C31.5176 28.3864 30.7266 27.8077 30.4562 26.956L22.7456 2.67206C22.3256 1.34934 23.3129 0 24.7007 0H30.3471C31.2384 0 32.0276 0.575482 32.3002 1.42403Z" fill="#00A261"/>
<g filter="url(#filter0_i_15542_26639)">
<path opacity="0.3" d="M24.8304 19.3846L19.3308 1.76882C19.0023 0.716559 18.028 0 16.9256 0C15.5839 0 14.4775 1.05147 14.4092 2.39149L13.7382 15.5586C13.7144 16.0262 13.7708 16.4945 13.905 16.9431L16.8904 26.923C17.1502 27.7915 17.9493 28.3864 18.8557 28.3864H21.6308C22.5237 28.3864 23.314 27.8089 23.5852 26.9583L24.8192 23.0879C25.2031 21.8839 25.207 20.5909 24.8304 19.3846Z" fill="white"/>
<path d="M24.8304 19.3846L19.3308 1.76882C19.0023 0.716559 18.028 0 16.9256 0C15.5839 0 14.4775 1.05147 14.4092 2.39149L13.7382 15.5586C13.7144 16.0262 13.7708 16.4945 13.905 16.9431L16.8904 26.923C17.1502 27.7915 17.9493 28.3864 18.8557 28.3864H21.6308C22.5237 28.3864 23.314 27.8089 23.5852 26.9583L24.8192 23.0879C25.2031 21.8839 25.207 20.5909 24.8304 19.3846Z" fill="url(#paint0_linear_15542_26639)"/>
</g>
<path d="M11.3783 0H17.0268C18.41 0 19.3967 1.34097 18.9852 2.66151L11.3539 27.1526C11.0869 28.0097 10.2934 28.5936 9.39552 28.5936H3.74704C2.36387 28.5936 1.37716 27.2527 1.78863 25.9321L9.41988 1.44105C9.68701 0.583877 10.4805 0 11.3783 0Z" fill="#00A261"/>
</g>
<defs>
<filter id="filter0_i_15542_26639" x="9.73291" y="0" width="15.377" height="31.3864" filterUnits="userSpaceOnUse" color-interpolation-filters="sRGB">
<feFlood flood-opacity="0" result="BackgroundImageFix"/>
<feBlend mode="normal" in="SourceGraphic" in2="BackgroundImageFix" result="shape"/>
<feColorMatrix in="SourceAlpha" type="matrix" values="0 0 0 0 0 0 0 0 0 0 0 0 0 0 0 0 0 0 127 0" result="hardAlpha"/>
<feOffset dx="-4" dy="3"/>
<feGaussianBlur stdDeviation="2"/>
<feComposite in2="hardAlpha" operator="arithmetic" k2="-1" k3="1"/>
<feColorMatrix type="matrix" values="0 0 0 0 0.904167 0 0 0 0 0.892865 0 0 0 0 0.892865 0 0 0 0.4 0"/>
<feBlend mode="normal" in2="shape" result="effect1_innerShadow_15542_26639"/>
</filter>
<linearGradient id="paint0_linear_15542_26639" x1="15.8312" y1="12.5641" x2="21.7286" y2="14.1026" gradientUnits="userSpaceOnUse">
<stop stop-opacity="0.25"/>
<stop offset="0.911458" stop-color="white" stop-opacity="0"/>
</linearGradient>
<clipPath id="clip0_15542_26639">
<rect width="40" height="28.718" fill="white" transform="translate(0.959473)"/>
</clipPath>
</defs>
</svg>
